{"title":"Hurricane 2018 1080p WEB-DL DD 5.1 x264 [MW]","magnet":"magnet:?xt=urn:btih:d31f3ea24a8024c414983fe1cef80da2a73fc79f&dn=Hurricane+2018+1080p+WEB-DL+DD+5.1+x264+%5BMW%5D&tr=udp%3A%2F%2Ftracker.leechers-paradise.org%3A6969&tr=udp%3A%2F%2Fzer0day.ch%3A1337&tr=udp%3A%2F%2Fopen.demonii.com%3A1337&tr=udp%3A%2F%2Ftracker.coppersurfer.tk%3A6969&tr=udp%3A%2F%2Fexodus.desync.com%3A6969","uploader":"MFreaky","categoryP":"video","categoryS":"hd___movies","size":"2028314934","seeders":"27","leechers":"31","description":" <a href=\"https://pichub.site/image/DFBbj\" rel=\"nofollow\" target=\"_NEW\">https://pichub.site/image/DFBbj</a> <a href=\"\nhttps://pichub.site/image/DFgcr\" rel=\"nofollow\" target=\"_NEW\">\nhttps://pichub.site/image/DFgcr</a> <a href=\"\nhttps://pichub.site/image/DFmvk\" rel=\"nofollow\" target=\"_NEW\">\nhttps://pichub.site/image/DFmvk</a> <a href=\"\nhttps://pichub.site/image/DFu9Q\" rel=\"nofollow\" target=\"_NEW\">\nhttps://pichub.site/image/DFu9Q</a> <a href=\"\nhttps://pichub.site/image/DFNSv\" rel=\"nofollow\" target=\"_NEW\">\nhttps://pichub.site/image/DFNSv</a>\r\n\r\nIMDB <a href=\"\nhttps://www.imdb.com/title/tt7515456/\" rel=\"nofollow\" target=\"_NEW\">\nhttps://www.imdb.com/title/tt7515456/</a>\r\n\r\nVideo\r\nID                                       : 1\r\nFormat                                   : AVC\r\nFormat/Info                              : Advanced Video Codec\r\nFormat profile                           : High@L4.1\r\nFormat settings                          : CABAC / 4 Ref Frames\r\nFormat settings, CABAC                   : Yes\r\nFormat settings, RefFrames               : 4 frames\r\nCodec ID                                 : V_MPEG4/ISO/AVC\r\nDuration                                 : 1 h 47 min\r\nBit rate                                 : 2 200 kb/s\r\nWidth                                    : 1 912 pixels\r\nHeight                                   : 792 pixels\r\nDisplay aspect ratio                     : 2.40:1\r\nFrame rate mode                          : Constant\r\nFrame rate                               : 24.000 FPS\r\nColor space                              : YUV\r\nChroma subsampling                       : 4:2:0\r\nBit depth                                : 8 bits\r\nScan type                                : Progressive\r\nBits/(Pixel*Frame)                       : 0.061\r\nStream size                              : 1.60 GiB (85%)\r\nWriting library                          : x264 core 155 r2901 7d0ff22\r\nDefault                                  : Yes\r\nForced                                   : No\r\n\r\nAudio\r\nID                                       : 2\r\nFormat                                   : AC-3\r\nFormat/Info                              : Audio Coding 3\r\nCodec ID                                 : A_AC3\r\nDuration                                 : 1 h 47 min\r\nBit rate mode                            : Constant\r\nBit rate                                 : 384 kb/s\r\nChannel(s)                               : 6 channels\r\nChannel positions                        : Front: L C R, Side: L R, LFE\r\nSampling rate                            : 48.0 kHz\r\nFrame rate                               : 31.250 FPS (1536 SPF)\r\nBit depth                                : 16 bits\r\nCompression mode                         : Lossy\r\nStream size                              : 296 MiB (15%)\r\nLanguage                                 : English\r\nService kind                             : Complete Main\r\nDefault                                  : Yes\r\nForced                                   : No","last_updated":"2018-09-11T12:10:03.209Z","parsed":{"xt":"urn:btih:d31f3ea24a8024c414983fe1cef80da2a73fc79f","dn":"Hurricane 2018 1080p WEB-DL DD 5.1 x264 [MW]","tr":["udp://exodus.desync.com:6969","udp://open.demonii.com:1337","udp://tracker.coppersurfer.tk:6969","udp://tracker.leechers-paradise.org:6969","udp://zer0day.ch:1337"],"infoHash":"d31f3ea24a8024c414983fe1cef80da2a73fc79f","infoHashBuffer":{"type":"Buffer","data":[211,31,62,162,74,128,36,196,20,152,63,225,206,248,13,162,167,63,199,159]},"name":"Hurricane 2018 1080p WEB-DL DD 5.1 x264 [MW]","announce":["udp://exodus.desync.com:6969","udp://open.demonii.com:1337","udp://tracker.coppersurfer.tk:6969","udp://tracker.leechers-paradise.org:6969","udp://zer0day.ch:1337"],"urlList":[]}}